<mxfile host="app.diagrams.net" agent="Mozilla/5.0 (Macintosh; Intel Mac OS X 10_15_7) AppleWebKit/537.36 (KHTML, like Gecko) Chrome/134.0.0.0 Safari/537.36" version="26.1.0">
  <diagram id="R2lEEEUBdFMjLlhIrx00" name="Page-1">
    <mxGraphModel dx="2252" dy="1191" grid="1" gridSize="10" guides="1" tooltips="1" connect="1" arrows="1" fold="1" page="1" pageScale="1" pageWidth="3300" pageHeight="4681" math="0" shadow="0" extFonts="Permanent Marker^https://fonts.googleapis.com/css?family=Permanent+Marker">
      <root>
        <mxCell id="0" />
        <mxCell id="1" parent="0" />
        <mxCell id="AnqnkYBPr-PZf6My7wd3-1" value="SALESPERSON" style="rounded=0;whiteSpace=wrap;html=1;" vertex="1" parent="1">
          <mxGeometry x="150" y="870" width="120" height="60" as="geometry" />
        </mxCell>
        <mxCell id="AnqnkYBPr-PZf6My7wd3-2" value="TRIP" style="rounded=0;whiteSpace=wrap;html=1;" vertex="1" parent="1">
          <mxGeometry x="540" y="870" width="120" height="60" as="geometry" />
        </mxCell>
        <mxCell id="AnqnkYBPr-PZf6My7wd3-3" value="EXPENSE" style="rounded=0;whiteSpace=wrap;html=1;" vertex="1" parent="1">
          <mxGeometry x="910" y="870" width="120" height="60" as="geometry" />
        </mxCell>
        <mxCell id="AnqnkYBPr-PZf6My7wd3-6" value="makes" style="rhombus;whiteSpace=wrap;html=1;" vertex="1" parent="1">
          <mxGeometry x="320" y="875" width="110" height="50" as="geometry" />
        </mxCell>
        <mxCell id="AnqnkYBPr-PZf6My7wd3-8" value="incurs" style="rhombus;whiteSpace=wrap;html=1;" vertex="1" parent="1">
          <mxGeometry x="760" y="875" width="110" height="50" as="geometry" />
        </mxCell>
        <mxCell id="AnqnkYBPr-PZf6My7wd3-9" value="charged_to" style="rhombus;whiteSpace=wrap;html=1;" vertex="1" parent="1">
          <mxGeometry x="1120" y="875" width="110" height="50" as="geometry" />
        </mxCell>
        <mxCell id="AnqnkYBPr-PZf6My7wd3-10" value="" style="endArrow=none;html=1;rounded=0;entryX=1;entryY=0.5;entryDx=0;entryDy=0;" edge="1" parent="1" source="AnqnkYBPr-PZf6My7wd3-6" target="AnqnkYBPr-PZf6My7wd3-1">
          <mxGeometry width="50" height="50" relative="1" as="geometry">
            <mxPoint x="1140" y="1140" as="sourcePoint" />
            <mxPoint x="1190" y="1090" as="targetPoint" />
          </mxGeometry>
        </mxCell>
        <mxCell id="AnqnkYBPr-PZf6My7wd3-95" value="1" style="edgeLabel;html=1;align=center;verticalAlign=middle;resizable=0;points=[];" vertex="1" connectable="0" parent="AnqnkYBPr-PZf6My7wd3-10">
          <mxGeometry x="0.4" y="-2" relative="1" as="geometry">
            <mxPoint as="offset" />
          </mxGeometry>
        </mxCell>
        <mxCell id="AnqnkYBPr-PZf6My7wd3-11" value="" style="endArrow=none;html=1;rounded=0;entryX=1;entryY=0.5;entryDx=0;entryDy=0;exitX=0;exitY=0.5;exitDx=0;exitDy=0;" edge="1" parent="1" source="AnqnkYBPr-PZf6My7wd3-2" target="AnqnkYBPr-PZf6My7wd3-6">
          <mxGeometry width="50" height="50" relative="1" as="geometry">
            <mxPoint x="1020" y="910" as="sourcePoint" />
            <mxPoint x="970" y="910" as="targetPoint" />
          </mxGeometry>
        </mxCell>
        <mxCell id="AnqnkYBPr-PZf6My7wd3-96" value="N" style="edgeLabel;html=1;align=center;verticalAlign=middle;resizable=0;points=[];" vertex="1" connectable="0" parent="AnqnkYBPr-PZf6My7wd3-11">
          <mxGeometry x="0.7273" y="-1" relative="1" as="geometry">
            <mxPoint as="offset" />
          </mxGeometry>
        </mxCell>
        <mxCell id="AnqnkYBPr-PZf6My7wd3-13" value="" style="endArrow=none;html=1;rounded=0;entryX=1;entryY=0.5;entryDx=0;entryDy=0;exitX=0;exitY=0.5;exitDx=0;exitDy=0;" edge="1" parent="1" source="AnqnkYBPr-PZf6My7wd3-8" target="AnqnkYBPr-PZf6My7wd3-2">
          <mxGeometry width="50" height="50" relative="1" as="geometry">
            <mxPoint x="1140" y="1140" as="sourcePoint" />
            <mxPoint x="1190" y="1090" as="targetPoint" />
          </mxGeometry>
        </mxCell>
        <mxCell id="AnqnkYBPr-PZf6My7wd3-97" value="1" style="edgeLabel;html=1;align=center;verticalAlign=middle;resizable=0;points=[];" vertex="1" connectable="0" parent="AnqnkYBPr-PZf6My7wd3-13">
          <mxGeometry x="0.644" relative="1" as="geometry">
            <mxPoint as="offset" />
          </mxGeometry>
        </mxCell>
        <mxCell id="AnqnkYBPr-PZf6My7wd3-15" value="" style="endArrow=none;html=1;rounded=0;exitX=0;exitY=0.5;exitDx=0;exitDy=0;entryX=1;entryY=0.5;entryDx=0;entryDy=0;" edge="1" parent="1" source="AnqnkYBPr-PZf6My7wd3-3" target="AnqnkYBPr-PZf6My7wd3-8">
          <mxGeometry width="50" height="50" relative="1" as="geometry">
            <mxPoint x="1100" y="1270" as="sourcePoint" />
            <mxPoint x="1020" y="990" as="targetPoint" />
          </mxGeometry>
        </mxCell>
        <mxCell id="AnqnkYBPr-PZf6My7wd3-98" value="N" style="edgeLabel;html=1;align=center;verticalAlign=middle;resizable=0;points=[];" vertex="1" connectable="0" parent="AnqnkYBPr-PZf6My7wd3-15">
          <mxGeometry x="-0.23" y="-1" relative="1" as="geometry">
            <mxPoint as="offset" />
          </mxGeometry>
        </mxCell>
        <mxCell id="AnqnkYBPr-PZf6My7wd3-20" value="" style="endArrow=none;html=1;rounded=0;entryX=1;entryY=0.5;entryDx=0;entryDy=0;exitX=0;exitY=0.5;exitDx=0;exitDy=0;" edge="1" parent="1" source="AnqnkYBPr-PZf6My7wd3-9" target="AnqnkYBPr-PZf6My7wd3-3">
          <mxGeometry width="50" height="50" relative="1" as="geometry">
            <mxPoint x="1120" y="900" as="sourcePoint" />
            <mxPoint x="990" y="1120" as="targetPoint" />
          </mxGeometry>
        </mxCell>
        <mxCell id="AnqnkYBPr-PZf6My7wd3-99" value="1" style="edgeLabel;html=1;align=center;verticalAlign=middle;resizable=0;points=[];" vertex="1" connectable="0" parent="AnqnkYBPr-PZf6My7wd3-20">
          <mxGeometry x="0.7328" relative="1" as="geometry">
            <mxPoint as="offset" />
          </mxGeometry>
        </mxCell>
        <mxCell id="AnqnkYBPr-PZf6My7wd3-21" value="" style="endArrow=none;html=1;rounded=0;entryX=1;entryY=0.5;entryDx=0;entryDy=0;exitX=0;exitY=0.5;exitDx=0;exitDy=0;" edge="1" parent="1" source="AnqnkYBPr-PZf6My7wd3-94" target="AnqnkYBPr-PZf6My7wd3-9">
          <mxGeometry width="50" height="50" relative="1" as="geometry">
            <mxPoint x="1280" y="900" as="sourcePoint" />
            <mxPoint x="1370" y="1325" as="targetPoint" />
          </mxGeometry>
        </mxCell>
        <mxCell id="AnqnkYBPr-PZf6My7wd3-100" value="N" style="edgeLabel;html=1;align=center;verticalAlign=middle;resizable=0;points=[];" vertex="1" connectable="0" parent="AnqnkYBPr-PZf6My7wd3-21">
          <mxGeometry x="-0.374" relative="1" as="geometry">
            <mxPoint as="offset" />
          </mxGeometry>
        </mxCell>
        <mxCell id="AnqnkYBPr-PZf6My7wd3-48" value="Account_num(PK" style="ellipse;whiteSpace=wrap;html=1;" vertex="1" parent="1">
          <mxGeometry x="1507.5" y="790" width="105" height="40" as="geometry" />
        </mxCell>
        <mxCell id="AnqnkYBPr-PZf6My7wd3-50" value="&lt;u&gt;Account_num(FK)&lt;/u&gt;" style="ellipse;whiteSpace=wrap;html=1;" vertex="1" parent="1">
          <mxGeometry x="1290" y="970" width="110" height="40" as="geometry" />
        </mxCell>
        <mxCell id="AnqnkYBPr-PZf6My7wd3-51" value="Trip_id(FK)" style="ellipse;whiteSpace=wrap;html=1;" vertex="1" parent="1">
          <mxGeometry x="1300" y="780" width="90" height="40" as="geometry" />
        </mxCell>
        <mxCell id="AnqnkYBPr-PZf6My7wd3-52" value="Amount" style="ellipse;whiteSpace=wrap;html=1;" vertex="1" parent="1">
          <mxGeometry x="925" y="800" width="90" height="40" as="geometry" />
        </mxCell>
        <mxCell id="AnqnkYBPr-PZf6My7wd3-53" value="Trip_id(FK)" style="ellipse;whiteSpace=wrap;html=1;" vertex="1" parent="1">
          <mxGeometry x="925" y="950" width="90" height="40" as="geometry" />
        </mxCell>
        <mxCell id="AnqnkYBPr-PZf6My7wd3-54" value="SSN(FK)" style="ellipse;whiteSpace=wrap;html=1;" vertex="1" parent="1">
          <mxGeometry x="650" y="950" width="90" height="40" as="geometry" />
        </mxCell>
        <mxCell id="AnqnkYBPr-PZf6My7wd3-55" value="Return_date" style="ellipse;whiteSpace=wrap;html=1;" vertex="1" parent="1">
          <mxGeometry x="550" y="960" width="90" height="40" as="geometry" />
        </mxCell>
        <mxCell id="AnqnkYBPr-PZf6My7wd3-56" value="Departure_date" style="ellipse;whiteSpace=wrap;html=1;" vertex="1" parent="1">
          <mxGeometry x="450" y="950" width="90" height="40" as="geometry" />
        </mxCell>
        <mxCell id="AnqnkYBPr-PZf6My7wd3-57" value="To_city" style="ellipse;whiteSpace=wrap;html=1;" vertex="1" parent="1">
          <mxGeometry x="640" y="800" width="90" height="40" as="geometry" />
        </mxCell>
        <mxCell id="AnqnkYBPr-PZf6My7wd3-58" value="From_city" style="ellipse;whiteSpace=wrap;html=1;" vertex="1" parent="1">
          <mxGeometry x="530" y="800" width="90" height="40" as="geometry" />
        </mxCell>
        <mxCell id="AnqnkYBPr-PZf6My7wd3-59" value="&lt;u&gt;Trip_id(PK)&lt;/u&gt;" style="ellipse;whiteSpace=wrap;html=1;" vertex="1" parent="1">
          <mxGeometry x="420" y="800" width="90" height="40" as="geometry" />
        </mxCell>
        <mxCell id="AnqnkYBPr-PZf6My7wd3-60" value="Name" style="ellipse;whiteSpace=wrap;html=1;" vertex="1" parent="1">
          <mxGeometry x="40" y="800" width="90" height="40" as="geometry" />
        </mxCell>
        <mxCell id="AnqnkYBPr-PZf6My7wd3-61" value="&lt;u&gt;SSN(PK)&lt;/u&gt;" style="ellipse;whiteSpace=wrap;html=1;" vertex="1" parent="1">
          <mxGeometry x="20" y="880" width="90" height="40" as="geometry" />
        </mxCell>
        <mxCell id="AnqnkYBPr-PZf6My7wd3-62" value="Dept_No" style="ellipse;whiteSpace=wrap;html=1;" vertex="1" parent="1">
          <mxGeometry x="165" y="970" width="90" height="40" as="geometry" />
        </mxCell>
        <mxCell id="AnqnkYBPr-PZf6My7wd3-63" value="Start_Year" style="ellipse;whiteSpace=wrap;html=1;" vertex="1" parent="1">
          <mxGeometry x="165" y="790" width="90" height="40" as="geometry" />
        </mxCell>
        <mxCell id="AnqnkYBPr-PZf6My7wd3-64" value="" style="endArrow=none;html=1;rounded=0;entryX=0.5;entryY=1;entryDx=0;entryDy=0;exitX=0.5;exitY=0;exitDx=0;exitDy=0;" edge="1" parent="1" source="AnqnkYBPr-PZf6My7wd3-62" target="AnqnkYBPr-PZf6My7wd3-1">
          <mxGeometry width="50" height="50" relative="1" as="geometry">
            <mxPoint x="700" y="900" as="sourcePoint" />
            <mxPoint x="750" y="850" as="targetPoint" />
          </mxGeometry>
        </mxCell>
        <mxCell id="AnqnkYBPr-PZf6My7wd3-65" value="" style="endArrow=none;html=1;rounded=0;exitX=0.5;exitY=1;exitDx=0;exitDy=0;entryX=0.5;entryY=0;entryDx=0;entryDy=0;" edge="1" parent="1" source="AnqnkYBPr-PZf6My7wd3-63" target="AnqnkYBPr-PZf6My7wd3-1">
          <mxGeometry width="50" height="50" relative="1" as="geometry">
            <mxPoint x="700" y="900" as="sourcePoint" />
            <mxPoint x="210" y="860" as="targetPoint" />
          </mxGeometry>
        </mxCell>
        <mxCell id="AnqnkYBPr-PZf6My7wd3-66" value="" style="endArrow=none;html=1;rounded=0;entryX=1;entryY=0.5;entryDx=0;entryDy=0;exitX=0;exitY=0.5;exitDx=0;exitDy=0;" edge="1" parent="1" source="AnqnkYBPr-PZf6My7wd3-1" target="AnqnkYBPr-PZf6My7wd3-61">
          <mxGeometry width="50" height="50" relative="1" as="geometry">
            <mxPoint x="215" y="990" as="sourcePoint" />
            <mxPoint x="220" y="940" as="targetPoint" />
          </mxGeometry>
        </mxCell>
        <mxCell id="AnqnkYBPr-PZf6My7wd3-67" value="" style="endArrow=none;html=1;rounded=0;entryX=1;entryY=1;entryDx=0;entryDy=0;exitX=0;exitY=0;exitDx=0;exitDy=0;" edge="1" parent="1" source="AnqnkYBPr-PZf6My7wd3-1" target="AnqnkYBPr-PZf6My7wd3-60">
          <mxGeometry width="50" height="50" relative="1" as="geometry">
            <mxPoint x="250" y="880" as="sourcePoint" />
            <mxPoint x="300" y="830" as="targetPoint" />
          </mxGeometry>
        </mxCell>
        <mxCell id="AnqnkYBPr-PZf6My7wd3-69" value="ACCOUNT" style="rounded=0;whiteSpace=wrap;html=1;" vertex="1" parent="1">
          <mxGeometry x="1500" y="870" width="120" height="60" as="geometry" />
        </mxCell>
        <mxCell id="AnqnkYBPr-PZf6My7wd3-70" value="" style="endArrow=none;html=1;rounded=0;entryX=1;entryY=0.5;entryDx=0;entryDy=0;exitX=0;exitY=0.5;exitDx=0;exitDy=0;" edge="1" parent="1" source="AnqnkYBPr-PZf6My7wd3-69" target="AnqnkYBPr-PZf6My7wd3-94">
          <mxGeometry width="50" height="50" relative="1" as="geometry">
            <mxPoint x="1500" y="910" as="sourcePoint" />
            <mxPoint x="1410" y="900" as="targetPoint" />
          </mxGeometry>
        </mxCell>
        <mxCell id="AnqnkYBPr-PZf6My7wd3-102" value="1" style="edgeLabel;html=1;align=center;verticalAlign=middle;resizable=0;points=[];" vertex="1" connectable="0" parent="AnqnkYBPr-PZf6My7wd3-70">
          <mxGeometry x="-0.6901" relative="1" as="geometry">
            <mxPoint as="offset" />
          </mxGeometry>
        </mxCell>
        <mxCell id="AnqnkYBPr-PZf6My7wd3-81" value="" style="endArrow=none;html=1;rounded=0;entryX=0.5;entryY=1;entryDx=0;entryDy=0;exitX=0;exitY=0;exitDx=0;exitDy=0;" edge="1" parent="1" source="AnqnkYBPr-PZf6My7wd3-2" target="AnqnkYBPr-PZf6My7wd3-59">
          <mxGeometry width="50" height="50" relative="1" as="geometry">
            <mxPoint x="90" y="1070" as="sourcePoint" />
            <mxPoint x="140" y="1020" as="targetPoint" />
          </mxGeometry>
        </mxCell>
        <mxCell id="AnqnkYBPr-PZf6My7wd3-82" value="" style="endArrow=none;html=1;rounded=0;entryX=0.5;entryY=1;entryDx=0;entryDy=0;exitX=0.5;exitY=0;exitDx=0;exitDy=0;" edge="1" parent="1" source="AnqnkYBPr-PZf6My7wd3-2" target="AnqnkYBPr-PZf6My7wd3-58">
          <mxGeometry width="50" height="50" relative="1" as="geometry">
            <mxPoint x="100" y="1080" as="sourcePoint" />
            <mxPoint x="530" y="850" as="targetPoint" />
          </mxGeometry>
        </mxCell>
        <mxCell id="AnqnkYBPr-PZf6My7wd3-83" value="" style="endArrow=none;html=1;rounded=0;entryX=0.5;entryY=1;entryDx=0;entryDy=0;exitX=1;exitY=0;exitDx=0;exitDy=0;" edge="1" parent="1" source="AnqnkYBPr-PZf6My7wd3-2" target="AnqnkYBPr-PZf6My7wd3-57">
          <mxGeometry width="50" height="50" relative="1" as="geometry">
            <mxPoint x="110" y="1090" as="sourcePoint" />
            <mxPoint x="160" y="1040" as="targetPoint" />
          </mxGeometry>
        </mxCell>
        <mxCell id="AnqnkYBPr-PZf6My7wd3-84" value="" style="endArrow=none;html=1;rounded=0;entryX=0;entryY=1;entryDx=0;entryDy=0;exitX=0.711;exitY=0.082;exitDx=0;exitDy=0;exitPerimeter=0;" edge="1" parent="1" source="AnqnkYBPr-PZf6My7wd3-56" target="AnqnkYBPr-PZf6My7wd3-2">
          <mxGeometry width="50" height="50" relative="1" as="geometry">
            <mxPoint x="120" y="1100" as="sourcePoint" />
            <mxPoint x="170" y="1050" as="targetPoint" />
          </mxGeometry>
        </mxCell>
        <mxCell id="AnqnkYBPr-PZf6My7wd3-85" value="" style="endArrow=none;html=1;rounded=0;entryX=0.5;entryY=1;entryDx=0;entryDy=0;exitX=0.5;exitY=0;exitDx=0;exitDy=0;" edge="1" parent="1" source="AnqnkYBPr-PZf6My7wd3-55" target="AnqnkYBPr-PZf6My7wd3-2">
          <mxGeometry width="50" height="50" relative="1" as="geometry">
            <mxPoint x="130" y="1110" as="sourcePoint" />
            <mxPoint x="180" y="1060" as="targetPoint" />
          </mxGeometry>
        </mxCell>
        <mxCell id="AnqnkYBPr-PZf6My7wd3-86" value="" style="endArrow=none;html=1;rounded=0;entryX=1;entryY=1;entryDx=0;entryDy=0;exitX=0.5;exitY=0;exitDx=0;exitDy=0;" edge="1" parent="1" source="AnqnkYBPr-PZf6My7wd3-54" target="AnqnkYBPr-PZf6My7wd3-2">
          <mxGeometry width="50" height="50" relative="1" as="geometry">
            <mxPoint x="140" y="1120" as="sourcePoint" />
            <mxPoint x="190" y="1070" as="targetPoint" />
          </mxGeometry>
        </mxCell>
        <mxCell id="AnqnkYBPr-PZf6My7wd3-87" value="" style="endArrow=none;html=1;rounded=0;entryX=0.5;entryY=1;entryDx=0;entryDy=0;exitX=0.5;exitY=0;exitDx=0;exitDy=0;" edge="1" parent="1" source="AnqnkYBPr-PZf6My7wd3-3" target="AnqnkYBPr-PZf6My7wd3-52">
          <mxGeometry width="50" height="50" relative="1" as="geometry">
            <mxPoint x="1010" y="1120" as="sourcePoint" />
            <mxPoint x="1060" y="1070" as="targetPoint" />
          </mxGeometry>
        </mxCell>
        <mxCell id="AnqnkYBPr-PZf6My7wd3-88" value="" style="endArrow=none;html=1;rounded=0;entryX=0.5;entryY=1;entryDx=0;entryDy=0;exitX=0.5;exitY=0;exitDx=0;exitDy=0;" edge="1" parent="1" source="AnqnkYBPr-PZf6My7wd3-53" target="AnqnkYBPr-PZf6My7wd3-3">
          <mxGeometry width="50" height="50" relative="1" as="geometry">
            <mxPoint x="1020" y="1130" as="sourcePoint" />
            <mxPoint x="1070" y="1080" as="targetPoint" />
          </mxGeometry>
        </mxCell>
        <mxCell id="AnqnkYBPr-PZf6My7wd3-89" value="" style="endArrow=none;html=1;rounded=0;entryX=0.5;entryY=1;entryDx=0;entryDy=0;exitX=0.5;exitY=0;exitDx=0;exitDy=0;" edge="1" parent="1" target="AnqnkYBPr-PZf6My7wd3-51">
          <mxGeometry width="50" height="50" relative="1" as="geometry">
            <mxPoint x="1345" y="870" as="sourcePoint" />
            <mxPoint x="1510" y="1090" as="targetPoint" />
          </mxGeometry>
        </mxCell>
        <mxCell id="AnqnkYBPr-PZf6My7wd3-90" value="" style="endArrow=none;html=1;rounded=0;entryX=0.5;entryY=1;entryDx=0;entryDy=0;exitX=0.5;exitY=0;exitDx=0;exitDy=0;" edge="1" parent="1" source="AnqnkYBPr-PZf6My7wd3-50">
          <mxGeometry width="50" height="50" relative="1" as="geometry">
            <mxPoint x="1470" y="1150" as="sourcePoint" />
            <mxPoint x="1345" y="930" as="targetPoint" />
          </mxGeometry>
        </mxCell>
        <mxCell id="AnqnkYBPr-PZf6My7wd3-91" value="" style="endArrow=none;html=1;rounded=0;entryX=0.5;entryY=1;entryDx=0;entryDy=0;exitX=0.5;exitY=0;exitDx=0;exitDy=0;" edge="1" parent="1" source="AnqnkYBPr-PZf6My7wd3-69" target="AnqnkYBPr-PZf6My7wd3-48">
          <mxGeometry width="50" height="50" relative="1" as="geometry">
            <mxPoint x="1280" y="1160" as="sourcePoint" />
            <mxPoint x="1330" y="1110" as="targetPoint" />
          </mxGeometry>
        </mxCell>
        <mxCell id="AnqnkYBPr-PZf6My7wd3-94" value="&lt;font style=&quot;font-size: 10px;&quot;&gt;EXPENSE_ACCOUNT&lt;/font&gt;" style="shape=associativeEntity;whiteSpace=wrap;html=1;align=center;" vertex="1" parent="1">
          <mxGeometry x="1280" y="870" width="140" height="60" as="geometry" />
        </mxCell>
      </root>
    </mxGraphModel>
  </diagram>
</mxfile>
